<?xml version="1.0" ?><!DOCTYPE svg  PUBLIC '-//W3C//DTD SVG 1.1//EN'  'http://www.w3.org/Graphics/SVG/1.1/DTD/svg11.dtd'><svg height="8.4666mm" version="1.1" viewBox="0 0 847 847" width="8.4666mm" xml:space="preserve" xmlns="http://www.w3.org/2000/svg" xmlns:xlink="http://www.w3.org/1999/xlink">
<g id="Layer_x0020_1">
<circle fill="#01A1EE" cx="423" cy="423" r="342"/>
<path fill="#FEFEFE" d="M235 284l140 -21 11 -2 0 12 0 133 0 10 -10 0 -139 0 -10 0 0 -10 0 -112 0 -9 8 -1zm173 -26l187 -28 11 -2 0 11 0 167 0 10 -10 0 -186 0 -10 0 0 -10 0 -138 0 -9 8 -1zm198 182l0 166 0 11 -11 -1 -187 -28 -8 -2 0 -8 0 -138 0 -10 10 0 186 0 10 0 0 10zm-231 142l-140 -21 -8 -1 0 -9 0 -111 0 -10 10 0 139 0 10 0 0 10 0 132 0 12 -11 -2z"/>
</g>
</svg>